<svg xmlns="http://www.w3.org/2000/svg" width="1600" height="900" viewBox="0 0 1600 900" preserveAspectRatio="xMidYMid slice">
  <rect width="1600" height="900" fill="#071a0f"/>
  <defs>
    <pattern id="grid" width="40" height="40" patternUnits="userSpaceOnUse">
      <path d="M 40 0 L 0 0 0 40" fill="none" stroke="#0c3218" stroke-width="1"/>
    </pattern>
  </defs>
  <rect width="1600" height="900" fill="url(#grid)"/>
  <path d="M1564,394 L1564,441 L1564,589 L1564,744 L1564,809 L1564,900 L1564,900 L1564,900 L1464,900" stroke="#00b34d" stroke-width="2" fill="none" opacity="0.69" stroke-linecap="round"/><path d="M1449,672 L1449,522 L1449,477 L1449,628" stroke="#0aff9d" stroke-width="1" fill="none" opacity="0.64" stroke-linecap="round"/><path d="M533,11 L533,106 L379,106 L315,106 L232,106" stroke="#00cc33" stroke-width="1" fill="none" opacity="0.36" stroke-linecap="round"/><path d="M496,357 L496,244 L496,152 L496,41" stroke="#0aff9d" stroke-width="1" fill="none" opacity="0.66" stroke-linecap="round"/><path d="M227,202 L227,122 L227,0 L227,0 L227,0 L227,0 L227,0 L227,0" stroke="#39ff14" stroke-width="1" fill="none" opacity="0.34" stroke-linecap="round"/><path d="M900,55 L900,0 L900,0 L900,0" stroke="#00cc33" stroke-width="1" fill="none" opacity="0.63" stroke-linecap="round"/><path d="M126,824 L0,824 L0,824 L0,824 L0,824 L0,824 L0,900 L0,900 L0,900" stroke="#00ff41" stroke-width="2" fill="none" opacity="0.47" stroke-linecap="round"/><path d="M479,84 L583,84 L711,84 L833,84 L984,84 L1133,84 L1220,84 L1291,84" stroke="#00cc33" stroke-width="1" fill="none" opacity="0.32" stroke-linecap="round"/><path d="M1103,568 L993,568 L850,568 L733,568" stroke="#39ff14" stroke-width="1" fill="none" opacity="0.59" stroke-linecap="round"/><path d="M1548,565 L1548,679 L1548,729 L1427,729 L1427,807" stroke="#00b34d" stroke-width="1" fill="none" opacity="0.45" stroke-linecap="round"/><path d="M1416,351 L1416,499 L1416,541 L1416,691 L1416,611 L1416,562" stroke="#39ff14" stroke-width="1" fill="none" opacity="0.36" stroke-linecap="round"/><path d="M1388,128 L1388,201 L1388,293 L1388,444 L1388,601 L1388,671" stroke="#39ff14" stroke-width="2" fill="none" opacity="0.49" stroke-linecap="round"/><path d="M923,727 L765,727 L640,727 L523,727 L444,727" stroke="#00cc33" stroke-width="2" fill="none" opacity="0.31" stroke-linecap="round"/><path d="M1214,793 L1214,684 L1214,635 L1214,548 L1214,406 L1214,564 L1214,693" stroke="#39ff14" stroke-width="2" fill="none" opacity="0.67" stroke-linecap="round"/><path d="M530,496 L672,496 L808,496 L896,496 L972,496" stroke="#00ff41" stroke-width="1" fill="none" opacity="0.74" stroke-linecap="round"/><path d="M1492,373 L1348,373 L1243,373 L1184,373 L1063,373 L1063,331 L1063,290 L1063,172 L1063,324" stroke="#78ffb4" stroke-width="1" fill="none" opacity="0.33" stroke-linecap="round"/><path d="M1268,261 L1186,261 L1186,346 L1186,393 L1186,499 L1186,398 L1186,278 L1186,222 L1186,147" stroke="#39ff14" stroke-width="1" fill="none" opacity="0.6" stroke-linecap="round"/><path d="M91,615 L22,615 L0,615 L0,615" stroke="#39ff14" stroke-width="2" fill="none" opacity="0.6" stroke-linecap="round"/><path d="M51,856 L0,856 L0,856 L93,856" stroke="#00ff41" stroke-width="2" fill="none" opacity="0.41" stroke-linecap="round"/><path d="M34,571 L34,653 L34,714 L34,804 L34,900 L34,900 L34,900" stroke="#00cc33" stroke-width="2" fill="none" opacity="0.41" stroke-linecap="round"/><path d="M420,593 L420,520 L420,377 L516,377 L516,281 L516,171" stroke="#78ffb4" stroke-width="3" fill="none" opacity="0.75" stroke-linecap="round"/><path d="M1586,686 L1600,686 L1600,686 L1600,686" stroke="#39ff14" stroke-width="3" fill="none" opacity="0.31" stroke-linecap="round"/><path d="M1119,118 L1058,118 L960,118 L846,118 L846,255 L846,98 L846,0 L846,0" stroke="#00b34d" stroke-width="1" fill="none" opacity="0.49" stroke-linecap="round"/><path d="M190,298 L190,389 L190,526 L190,579 L190,691 L190,795 L190,900 L190,900" stroke="#00b34d" stroke-width="1" fill="none" opacity="0.32" stroke-linecap="round"/><path d="M996,401 L996,301 L996,212 L1154,212 L1300,212" stroke="#78ffb4" stroke-width="1" fill="none" opacity="0.42" stroke-linecap="round"/><path d="M1224,860 L1224,900 L1224,900 L1224,900 L1224,900 L1224,900 L1224,900 L1224,900" stroke="#78ffb4" stroke-width="2" fill="none" opacity="0.64" stroke-linecap="round"/><path d="M656,669 L656,735 L656,830 L656,900 L656,900 L656,900" stroke="#78ffb4" stroke-width="1" fill="none" opacity="0.42" stroke-linecap="round"/><path d="M1579,235 L1474,235 L1474,295 L1474,438 L1474,558 L1474,634 L1474,702" stroke="#00ff41" stroke-width="1" fill="none" opacity="0.46" stroke-linecap="round"/><path d="M648,526 L648,434 L648,284 L648,175 L648,65" stroke="#78ffb4" stroke-width="1" fill="none" opacity="0.73" stroke-linecap="round"/><path d="M1545,552 L1545,404 L1545,271 L1545,133 L1421,133 L1421,52" stroke="#0aff9d" stroke-width="2" fill="none" opacity="0.37" stroke-linecap="round"/><path d="M1386,822 L1501,822 L1600,822 L1600,822 L1600,822 L1600,822 L1600,900 L1600,900" stroke="#00ff41" stroke-width="1" fill="none" opacity="0.35" stroke-linecap="round"/><path d="M1499,193 L1435,193 L1435,78 L1435,150 L1435,196 L1435,283 L1539,283 L1600,283" stroke="#00b34d" stroke-width="1" fill="none" opacity="0.31" stroke-linecap="round"/><path d="M988,567 L946,567 L842,567 L748,567 L669,567 L812,567 L859,567 L996,567" stroke="#39ff14" stroke-width="1" fill="none" opacity="0.65" stroke-linecap="round"/><path d="M31,100 L107,100 L107,26 L14,26 L0,26" stroke="#78ffb4" stroke-width="1" fill="none" opacity="0.71" stroke-linecap="round"/><path d="M708,425 L861,425 L923,425 L1028,425 L1083,425 L961,425 L902,425" stroke="#00b34d" stroke-width="2" fill="none" opacity="0.36" stroke-linecap="round"/><path d="M1220,281 L1220,397 L1111,397 L1071,397" stroke="#00b34d" stroke-width="1" fill="none" opacity="0.71" stroke-linecap="round"/><path d="M1286,584 L1128,584 L1029,584 L896,584 L759,584 L870,584 L1008,584 L1133,584" stroke="#78ffb4" stroke-width="1" fill="none" opacity="0.67" stroke-linecap="round"/><path d="M1128,890 L1128,750 L1128,628 L1128,497" stroke="#39ff14" stroke-width="1" fill="none" opacity="0.5" stroke-linecap="round"/><path d="M927,440 L815,440 L729,440 L648,440 L527,440 L370,440 L301,440 L164,440 L52,440" stroke="#00cc33" stroke-width="2" fill="none" opacity="0.61" stroke-linecap="round"/><path d="M781,589 L781,648 L781,723 L781,639 L781,509 L901,509 L1019,509" stroke="#00b34d" stroke-width="2" fill="none" opacity="0.41" stroke-linecap="round"/><path d="M159,584 L304,584 L378,584 L435,584 L475,584 L531,584 L616,584 L770,584" stroke="#00cc33" stroke-width="2" fill="none" opacity="0.61" stroke-linecap="round"/><path d="M273,834 L203,834 L101,834 L0,834 L0,834 L0,834" stroke="#00b34d" stroke-width="3" fill="none" opacity="0.48" stroke-linecap="round"/><path d="M1089,236 L1241,236 L1393,236 L1480,236 L1529,236 L1600,236 L1489,236" stroke="#00ff41" stroke-width="2" fill="none" opacity="0.73" stroke-linecap="round"/><path d="M532,249 L532,147 L532,17 L532,0 L532,0 L532,0 L437,0" stroke="#00cc33" stroke-width="3" fill="none" opacity="0.6" stroke-linecap="round"/><path d="M754,715 L806,715 L806,814 L806,886" stroke="#00ff41" stroke-width="2" fill="none" opacity="0.34" stroke-linecap="round"/><path d="M384,629 L384,551 L457,551 L519,551 L471,551 L396,551 L457,551" stroke="#39ff14" stroke-width="3" fill="none" opacity="0.71" stroke-linecap="round"/><path d="M71,633 L14,633 L0,633 L0,788 L0,862 L107,862 L185,862" stroke="#39ff14" stroke-width="2" fill="none" opacity="0.56" stroke-linecap="round"/><path d="M590,36 L590,0 L470,0 L426,0 L339,0 L181,0" stroke="#39ff14" stroke-width="1" fill="none" opacity="0.46" stroke-linecap="round"/><path d="M244,609 L244,697 L334,697 L377,697" stroke="#39ff14" stroke-width="2" fill="none" opacity="0.53" stroke-linecap="round"/><path d="M924,554 L924,437 L924,388 L924,303 L924,242 L924,125 L924,0 L924,0" stroke="#00ff41" stroke-width="2" fill="none" opacity="0.56" stroke-linecap="round"/><path d="M216,508 L216,446 L216,386 L135,386" stroke="#0aff9d" stroke-width="1" fill="none" opacity="0.42" stroke-linecap="round"/><path d="M696,202 L696,342 L696,289 L696,438 L696,343 L696,285" stroke="#00cc33" stroke-width="3" fill="none" opacity="0.75" stroke-linecap="round"/><path d="M884,800 L1019,800 L1115,800 L1181,800 L1332,800 L1332,900 L1332,900 L1332,900" stroke="#00cc33" stroke-width="1" fill="none" opacity="0.68" stroke-linecap="round"/><path d="M800,361 L660,361 L574,361 L533,361 L476,361 L516,361 L585,361 L675,361 L675,206" stroke="#00ff41" stroke-width="3" fill="none" opacity="0.67" stroke-linecap="round"/><path d="M1303,782 L1366,782 L1472,782 L1600,782 L1600,782" stroke="#39ff14" stroke-width="2" fill="none" opacity="0.33" stroke-linecap="round"/><path d="M67,444 L67,582 L67,713 L67,806" stroke="#00ff41" stroke-width="1" fill="none" opacity="0.67" stroke-linecap="round"/><path d="M671,212 L745,212 L841,212 L953,212 L1060,212 L1060,104" stroke="#39ff14" stroke-width="1" fill="none" opacity="0.62" stroke-linecap="round"/><path d="M681,547 L779,547 L843,547 L925,547 L1026,547 L1128,547 L1228,547 L1345,547 L1497,547" stroke="#00cc33" stroke-width="1" fill="none" opacity="0.51" stroke-linecap="round"/><path d="M707,135 L707,0 L707,0 L707,0 L707,0 L707,0 L707,0 L707,0 L707,0" stroke="#00cc33" stroke-width="1" fill="none" opacity="0.51" stroke-linecap="round"/><path d="M241,236 L241,186 L241,126 L241,6 L241,0" stroke="#00b34d" stroke-width="3" fill="none" opacity="0.49" stroke-linecap="round"/><path d="M1167,157 L1024,157 L926,157 L854,157 L779,157 L699,157" stroke="#00ff41" stroke-width="1" fill="none" opacity="0.34" stroke-linecap="round"/><path d="M520,23 L520,0 L520,0 L520,62 L520,168 L520,216 L593,216" stroke="#0aff9d" stroke-width="1" fill="none" opacity="0.3" stroke-linecap="round"/><path d="M478,643 L558,643 L558,687 L714,687 L792,687 L888,687 L808,687 L693,687" stroke="#00b34d" stroke-width="3" fill="none" opacity="0.68" stroke-linecap="round"/><path d="M1547,275 L1484,275 L1484,337 L1484,471 L1484,558" stroke="#00cc33" stroke-width="1" fill="none" opacity="0.6" stroke-linecap="round"/><path d="M41,246 L41,286 L41,442 L41,482 L41,576" stroke="#0aff9d" stroke-width="1" fill="none" opacity="0.5" stroke-linecap="round"/><path d="M1535,146 L1535,87 L1535,243 L1535,328 L1423,328 L1336,328 L1336,245" stroke="#0aff9d" stroke-width="2" fill="none" opacity="0.3" stroke-linecap="round"/><path d="M885,791 L885,847 L885,900 L885,900 L885,900 L885,900 L774,900" stroke="#00b34d" stroke-width="1" fill="none" opacity="0.47" stroke-linecap="round"/><path d="M1083,859 L1083,787 L1083,664 L1083,736" stroke="#00b34d" stroke-width="1" fill="none" opacity="0.36" stroke-linecap="round"/><path d="M1384,323 L1298,323 L1227,323 L1106,323 L1029,323 L1129,323 L1129,374" stroke="#00cc33" stroke-width="3" fill="none" opacity="0.5" stroke-linecap="round"/><path d="M1475,804 L1475,733 L1566,733 L1566,842 L1566,900 L1566,857 L1566,699" stroke="#00cc33" stroke-width="1" fill="none" opacity="0.65" stroke-linecap="round"/><path d="M219,410 L219,462 L69,462 L0,462 L0,462 L0,462" stroke="#0aff9d" stroke-width="1" fill="none" opacity="0.46" stroke-linecap="round"/><path d="M1111,61 L1018,61 L895,61 L895,124 L895,167 L895,318 L895,366" stroke="#39ff14" stroke-width="3" fill="none" opacity="0.44" stroke-linecap="round"/><path d="M956,95 L956,0 L956,0 L956,0" stroke="#00ff41" stroke-width="3" fill="none" opacity="0.33" stroke-linecap="round"/><path d="M53,683 L0,683 L0,683 L0,763 L0,763 L0,763" stroke="#39ff14" stroke-width="1" fill="none" opacity="0.68" stroke-linecap="round"/><path d="M111,47 L0,47 L0,47 L0,47 L0,47 L0,47 L0,47 L0,47 L0,47" stroke="#00b34d" stroke-width="1" fill="none" opacity="0.39" stroke-linecap="round"/><path d="M1424,635 L1424,575 L1337,575 L1243,575" stroke="#78ffb4" stroke-width="1" fill="none" opacity="0.59" stroke-linecap="round"/><path d="M526,257 L526,161 L526,80 L526,11 L526,0 L526,0" stroke="#39ff14" stroke-width="2" fill="none" opacity="0.45" stroke-linecap="round"/><path d="M265,594 L265,640 L265,700 L265,803 L265,869 L265,717" stroke="#39ff14" stroke-width="1" fill="none" opacity="0.33" stroke-linecap="round"/><path d="M1132,552 L1132,407 L1132,338 L1132,244" stroke="#0aff9d" stroke-width="3" fill="none" opacity="0.44" stroke-linecap="round"/><path d="M1132,854 L1132,900 L1132,900 L1132,900 L1132,900 L1132,900 L1132,900 L1132,900 L1279,900" stroke="#00cc33" stroke-width="3" fill="none" opacity="0.5" stroke-linecap="round"/><path d="M241,856 L241,900 L241,755 L241,695 L241,636 L241,503 L241,369 L96,369 L48,369" stroke="#00cc33" stroke-width="2" fill="none" opacity="0.37" stroke-linecap="round"/><path d="M342,439 L458,439 L540,439 L688,439 L783,439 L866,439 L929,439 L929,494" stroke="#00b34d" stroke-width="2" fill="none" opacity="0.72" stroke-linecap="round"/><path d="M967,685 L967,541 L967,474 L967,365 L967,478 L967,632 L967,770 L967,898 L1080,898" stroke="#39ff14" stroke-width="1" fill="none" opacity="0.35" stroke-linecap="round"/><path d="M732,708 L623,708 L623,637 L623,518" stroke="#00b34d" stroke-width="1" fill="none" opacity="0.49" stroke-linecap="round"/><path d="M12,882 L12,900 L12,900 L12,900 L12,900 L12,900 L0,900" stroke="#0aff9d" stroke-width="2" fill="none" opacity="0.51" stroke-linecap="round"/><path d="M556,25 L510,25 L510,151 L510,204 L510,312 L510,455 L510,570" stroke="#39ff14" stroke-width="2" fill="none" opacity="0.62" stroke-linecap="round"/><path d="M1098,518 L1157,518 L1157,458 L1157,382" stroke="#00ff41" stroke-width="3" fill="none" opacity="0.32" stroke-linecap="round"/><path d="M1491,197 L1491,348 L1340,348 L1271,348 L1165,348 L1047,348 L1047,419 L1047,354 L1047,229" stroke="#78ffb4" stroke-width="3" fill="none" opacity="0.48" stroke-linecap="round"/><path d="M303,765 L303,654 L303,607 L303,469 L303,426 L303,324 L303,188" stroke="#00cc33" stroke-width="1" fill="none" opacity="0.73" stroke-linecap="round"/><path d="M123,351 L0,351 L0,351 L0,351 L0,351 L0,351 L134,351" stroke="#00b34d" stroke-width="3" fill="none" opacity="0.5" stroke-linecap="round"/>
  <circle cx="1464" cy="900" r="6" fill="#00b34d" opacity="0.8899999999999999"/><circle cx="1449" cy="672" r="3" fill="#0aff9d" opacity="0.74"/><circle cx="0" cy="900" r="6" fill="#00ff41" opacity="0.6699999999999999"/><circle cx="1291" cy="84" r="6" fill="#00cc33" opacity="0.52"/><circle cx="733" cy="568" r="6" fill="#39ff14" opacity="0.79"/><circle cx="1103" cy="568" r="4" fill="#39ff14" opacity="0.69"/><circle cx="1427" cy="807" r="6" fill="#00b34d" opacity="0.65"/><circle cx="1548" cy="565" r="2" fill="#00b34d" opacity="0.55"/><circle cx="1416" cy="562" r="6" fill="#39ff14" opacity="0.56"/><circle cx="1388" cy="671" r="3" fill="#39ff14" opacity="0.69"/><circle cx="444" cy="727" r="5" fill="#00cc33" opacity="0.51"/><circle cx="923" cy="727" r="3" fill="#00cc33" opacity="0.41000000000000003"/><circle cx="1214" cy="693" r="4" fill="#39ff14" opacity="0.8700000000000001"/><circle cx="972" cy="496" r="5" fill="#00ff41" opacity="0.9"/><circle cx="1063" cy="324" r="6" fill="#78ffb4" opacity="0.53"/><circle cx="1186" cy="147" r="5" fill="#39ff14" opacity="0.8"/><circle cx="34" cy="900" r="5" fill="#00cc33" opacity="0.61"/><circle cx="1119" cy="118" r="4" fill="#00b34d" opacity="0.59"/><circle cx="190" cy="900" r="4" fill="#00b34d" opacity="0.52"/><circle cx="996" cy="401" r="2" fill="#78ffb4" opacity="0.52"/><circle cx="1224" cy="860" r="4" fill="#78ffb4" opacity="0.74"/><circle cx="656" cy="900" r="6" fill="#78ffb4" opacity="0.62"/><circle cx="1579" cy="235" r="2" fill="#00ff41" opacity="0.56"/><circle cx="648" cy="526" r="3" fill="#78ffb4" opacity="0.8"/><circle cx="1600" cy="283" r="4" fill="#00b34d" opacity="0.51"/><circle cx="0" cy="26" r="6" fill="#78ffb4" opacity="0.9"/><circle cx="1220" cy="281" r="2" fill="#00b34d" opacity="0.8"/><circle cx="1133" cy="584" r="3" fill="#78ffb4" opacity="0.8700000000000001"/><circle cx="1128" cy="497" r="5" fill="#39ff14" opacity="0.7"/><circle cx="927" cy="440" r="4" fill="#00cc33" opacity="0.71"/><circle cx="1019" cy="509" r="6" fill="#00b34d" opacity="0.61"/><circle cx="770" cy="584" r="5" fill="#00cc33" opacity="0.81"/><circle cx="0" cy="834" r="3" fill="#00b34d" opacity="0.6799999999999999"/><circle cx="1089" cy="236" r="3" fill="#00ff41" opacity="0.8"/><circle cx="806" cy="886" r="4" fill="#00ff41" opacity="0.54"/><circle cx="384" cy="629" r="2" fill="#39ff14" opacity="0.8"/><circle cx="185" cy="862" r="5" fill="#39ff14" opacity="0.76"/><circle cx="71" cy="633" r="4" fill="#39ff14" opacity="0.66"/><circle cx="244" cy="609" r="2" fill="#39ff14" opacity="0.63"/><circle cx="135" cy="386" r="5" fill="#0aff9d" opacity="0.62"/><circle cx="696" cy="202" r="3" fill="#00cc33" opacity="0.8"/><circle cx="1332" cy="900" r="3" fill="#00cc33" opacity="0.8800000000000001"/><circle cx="1060" cy="104" r="3" fill="#39ff14" opacity="0.8200000000000001"/><circle cx="671" cy="212" r="4" fill="#39ff14" opacity="0.72"/><circle cx="1497" cy="547" r="3" fill="#00cc33" opacity="0.71"/><circle cx="707" cy="135" r="3" fill="#00cc33" opacity="0.61"/><circle cx="241" cy="0" r="4" fill="#00b34d" opacity="0.69"/><circle cx="699" cy="157" r="3" fill="#00ff41" opacity="0.54"/><circle cx="693" cy="687" r="4" fill="#00b34d" opacity="0.8800000000000001"/><circle cx="478" cy="643" r="3" fill="#00b34d" opacity="0.78"/><circle cx="1547" cy="275" r="2" fill="#00cc33" opacity="0.7"/><circle cx="1129" cy="374" r="4" fill="#00cc33" opacity="0.7"/><circle cx="1384" cy="323" r="4" fill="#00cc33" opacity="0.6"/><circle cx="219" cy="410" r="2" fill="#0aff9d" opacity="0.56"/><circle cx="895" cy="366" r="3" fill="#39ff14" opacity="0.64"/><circle cx="0" cy="763" r="4" fill="#39ff14" opacity="0.8800000000000001"/><circle cx="0" cy="47" r="6" fill="#00b34d" opacity="0.5900000000000001"/><circle cx="111" cy="47" r="3" fill="#00b34d" opacity="0.49"/><circle cx="1243" cy="575" r="5" fill="#78ffb4" opacity="0.79"/><circle cx="1424" cy="635" r="3" fill="#78ffb4" opacity="0.69"/><circle cx="526" cy="0" r="4" fill="#39ff14" opacity="0.65"/><circle cx="265" cy="717" r="5" fill="#39ff14" opacity="0.53"/><circle cx="48" cy="369" r="4" fill="#00cc33" opacity="0.5700000000000001"/><circle cx="929" cy="494" r="3" fill="#00b34d" opacity="0.9"/><circle cx="342" cy="439" r="4" fill="#00b34d" opacity="0.8"/><circle cx="623" cy="518" r="6" fill="#00b34d" opacity="0.69"/><circle cx="0" cy="900" r="4" fill="#0aff9d" opacity="0.71"/><circle cx="556" cy="25" r="2" fill="#39ff14" opacity="0.72"/><circle cx="1047" cy="229" r="6" fill="#78ffb4" opacity="0.6799999999999999"/><circle cx="123" cy="351" r="4" fill="#00b34d" opacity="0.6"/>
</svg>